<svg width="1440" height="389" viewBox="0 0 1440 389" fill="none" xmlns="http://www.w3.org/2000/svg">
<path fill-rule="evenodd" clip-rule="evenodd" d="M0 87L40 130C80 173 160 259 240 281C320 303 400 259 480 231C560 202 640 187 720 180C800 173 880 173 960 195C1040 216 1120 259 1200 231C1280 202 1360 101 1400 51L1440 0V389H1400C1360 389 1280 389 1200 389C1120 389 1040 389 960 389C880 389 800 389 720 389C640 389 560 389 480 389C400 389 320 389 240 389C160 389 80 389 40 389H0V87Z" fill="#D8D8F6"/>
</svg>
